<svg xmlns="http://www.w3.org/2000/svg" version="1.1" xmlns:xlink="http://www.w3.org/1999/xlink" xmlns:svgjs="http://svgjs.com/svgjs" width="1440" height="1000" preserveAspectRatio="none" viewBox="0 0 1440 1000"><g mask="url(&quot;#SvgjsMask1582&quot;)" fill="none"><rect width="1440" height="1000" x="0" y="0" fill="url(#SvgjsLinearGradient1583)"></rect><path d="M1440 0L1374.15 0L1440 213.87z" fill="rgba(255, 255, 255, .1)"></path><path d="M1374.15 0L1440 213.87L1440 287.84000000000003L823.6800000000001 0z" fill="rgba(255, 255, 255, .075)"></path><path d="M823.68 0L1440 287.84000000000003L1440 701.4300000000001L683.9499999999999 0z" fill="rgba(255, 255, 255, .05)"></path><path d="M683.9499999999999 0L1440 701.4300000000001L1440 807.84L495.6199999999999 0z" fill="rgba(255, 255, 255, .025)"></path><path d="M0 1000L354.38 1000L0 901.71z" fill="rgba(0, 0, 0, .1)"></path><path d="M0 901.71L354.38 1000L365.65 1000L0 832.3000000000001z" fill="rgba(0, 0, 0, .075)"></path><path d="M0 832.3L365.65 1000L530.03 1000L0 578.7199999999999z" fill="rgba(0, 0, 0, .05)"></path><path d="M0 578.72L530.03 1000L1058.23 1000L0 498.8z" fill="rgba(0, 0, 0, .025)"></path></g><defs><mask id="SvgjsMask1582"><rect width="1440" height="1000" fill="#ffffff"></rect></mask><linearGradient x1="92.36%" y1="-11%" x2="7.64%" y2="111%" gradientUnits="userSpaceOnUse" id="SvgjsLinearGradient1583"><stop stop-color="#0e2a47" offset="0"></stop><stop stop-color="rgba(62, 17, 112, 1)" offset="1"></stop></linearGradient></defs></svg>