<?xml version="1.0" standalone="no"?>
<!DOCTYPE svg PUBLIC "-//W3C//DTD SVG 20010904//EN"
 "http://www.w3.org/TR/2001/REC-SVG-20010904/DTD/svg10.dtd">
<svg version="1.0" xmlns="http://www.w3.org/2000/svg"
 width="255.000000pt" height="224.000000pt" viewBox="0 0 255.000000 224.000000"
 preserveAspectRatio="xMidYMid meet">
<metadata>
Created by potrace 1.16, written by Peter Selinger 2001-2019
</metadata>
<g transform="translate(0.000000,224.000000) scale(0.100000,-0.100000)"
fill="#000000" stroke="none">
<path d="M598 1583 l-67 -4 -10 -52 c-86 -436 -151 -797 -151 -845 l0 -59 53
-6 c127 -15 366 -19 455 -8 133 16 195 43 263 110 l55 56 -4 -77 -5 -78 191 0
190 0 33 178 34 177 33 3 33 3 -8 -53 c-4 -29 -7 -98 -8 -153 0 -113 11 -142
67 -171 43 -22 238 -16 285 9 l33 17 -2 113 c-1 101 5 143 61 413 35 175 61
327 61 363 l0 61 -190 0 c-104 0 -190 -4 -190 -9 0 -8 -56 -318 -65 -358 -4
-18 -12 -23 -35 -23 -17 0 -30 4 -30 9 0 4 11 63 25 131 14 68 25 151 25 186
l0 64 -188 0 -189 0 -32 -167 c-17 -93 -44 -233 -60 -313 l-28 -145 -7 66 c-4
37 -16 83 -27 104 l-20 36 25 30 c32 38 39 76 35 188 -3 72 -8 95 -25 118 -31
42 -92 71 -170 83 -65 9 -294 11 -446 3z m408 -64 c77 -14 137 -49 158 -93 20
-43 21 -108 0 -152 -18 -38 -75 -87 -120 -104 l-28 -11 39 -18 c79 -36 121
-110 110 -195 -25 -190 -175 -286 -450 -286 -99 0 -273 15 -282 24 -4 4 140
774 153 818 6 20 36 24 225 26 74 1 162 -3 195 -9z m664 -12 c0 -8 -16 -92
-35 -187 -19 -95 -35 -175 -35 -177 0 -2 45 -3 99 -3 l100 0 10 53 c6 28 20
104 31 167 12 63 24 125 27 138 5 21 9 22 134 22 76 0 129 -4 129 -10 0 -5
-22 -117 -49 -249 -61 -293 -85 -448 -79 -519 4 -48 2 -55 -19 -69 -35 -23
-142 -29 -180 -10 -32 17 -63 70 -63 109 0 25 26 208 35 246 5 22 4 22 -94 22
-86 0 -100 -2 -105 -17 -2 -10 -19 -93 -36 -185 l-32 -168 -129 0 c-71 0 -129
3 -129 8 0 7 128 678 151 790 l10 52 130 0 c101 0 129 -3 129 -13z"/>
<path d="M835 1438 c-13 -42 -48 -259 -42 -264 12 -12 96 7 123 28 34 27 54
76 54 132 0 56 -15 91 -47 105 -32 15 -83 14 -88 -1z"/>
<path d="M770 1088 c-1 -2 -16 -79 -34 -172 l-33 -168 59 4 c103 8 149 62 156
187 4 67 1 79 -17 103 -12 15 -39 32 -59 38 -35 9 -71 13 -72 8z"/>
</g>
</svg>
