<svg xmlns="http://www.w3.org/2000/svg" version="1.1" xmlns:xlink="http://www.w3.org/1999/xlink" xmlns:svgjs="http://svgjs.com/svgjs" width="1680" height="1000" preserveAspectRatio="none" viewBox="0 0 1680 1000"><g mask="url(&quot;#SvgjsMask1033&quot;)" fill="none"><rect width="1680" height="1000" x="0" y="0" fill="rgba(0, 0, 0, 1)"></rect><path d="M0 63.64C7.57 25.79 13.99 9.17 50 0C138.99 -22.65 150 0 250 0C375 0 375 0 500 0C625 0 625 0 750 0C750 0 750 0 750 0C875 47.22 889.71 94.44 1000 94.44C1047.4 94.44 1017.44 18.11 1065.38 0C1142.44 -29.11 1157.69 0 1250 0C1375 0 1375 0 1500 0C1598.22 0 1623.66 -37.96 1696.43 0C1748.66 27.25 1735.51 62.79 1750 130.43C1762.29 187.79 1750 190.22 1750 250C1750 375 1750 375 1750 500C1750 625 1750 625 1750 750C1750 875 1812.5 937.5 1750 1000C1687.5 1062.5 1625 1000 1500 1000C1375 1000 1375 1000 1250 1000C1125 1000 1125 1000 1000 1000C915 1000 874.54 1049.94 830 1000C763.05 924.94 738.44 854.77 777.03 750C823.44 624 887.82 643.46 1000 538.46C1021.36 518.46 1044.12 522.81 1044.12 500C1044.12 466.08 1037.45 428.39 1000 425C890.39 415.09 874.2 445.95 750 473.4C704.56 483.45 676.61 462.63 660.71 500C617.78 600.93 628.34 625.57 632.35 750C636.4 875.57 715.84 926.31 676.83 1000C649.66 1051.31 588.41 1000 500 1000C396.43 1000 387.01 1019.82 292.86 1000C262.01 993.51 270.51 947.37 250 947.37C230.56 947.37 241.97 993.89 212.96 1000C116.97 1020.21 55.14 1051.34 0 1000C-51.34 952.2 -24.72 888.24 0 801.72C10.99 763.24 71.43 786.79 71.43 750C71.43 663.11 28.32 653.48 0 554.35C-7.39 528.48 0 527.17 0 500C0 375 0 375 0 250C0 156.82 -17.43 150.79 0 63.64" stroke="rgba(189, 113, 16, 0.31)" stroke-width="2"></path><path d="M500 119.32C452.76 119.32 402.54 181.15 402.54 250C402.54 336.33 453.05 429.69 500 429.69C546.01 429.69 588.46 336.8 588.46 250C588.46 181.61 545.72 119.32 500 119.32" stroke="rgba(189, 113, 16, 0.31)" stroke-width="2"></path><path d="M1500 435.34C1466.89 435.34 1447.18 465.81 1447.18 500C1447.18 541.75 1464.36 587.21 1500 587.21C1553.27 587.21 1625 539.48 1625 500C1625 463.55 1555.8 435.34 1500 435.34" stroke="rgba(189, 113, 16, 0.31)" stroke-width="2"></path><path d="M0 177.27C52.66 82.76 55.46 59.44 139.29 0C180.46 -29.19 194.64 0 250 0C360.72 0 461.63 -52.57 471.43 0C484.93 72.43 308.44 119.97 296.61 250C285.69 369.97 401.62 368.28 425.93 500C447.76 618.28 442.2 647.66 388.89 750C354.24 816.52 313.44 837.72 250 837.72C204.31 837.72 195.98 802.27 170.63 750C114.09 633.41 138.89 620.06 86.21 500C53.57 425.62 25.66 435.53 0 361.11C-17.44 310.53 0 305.56 0 250C0 213.63 -16.99 207.76 0 177.27" stroke="rgba(189, 113, 16, 0.31)" stroke-width="2"></path><path d="M684.62 250C684.62 200.26 700.58 151.42 750 148.81C858.27 143.09 875.36 190.09 1000 233.33C1021.2 240.68 1041.67 241.22 1041.67 250C1041.67 258.93 1021.79 261.99 1000 268.75C875.96 307.21 860.34 346.99 750 340.43C702.65 337.62 684.62 296.07 684.62 250" stroke="rgba(189, 113, 16, 0.31)" stroke-width="2"></path><path d="M1250 151.32C1195.63 84.07 1161.54 50.28 1161.54 0C1161.54 -25.38 1205.77 0 1250 0C1375 0 1375 0 1500 0C1542.41 0 1567.33 -31.09 1584.82 0C1637.64 93.91 1666.7 149.33 1640.63 250C1624.29 313.12 1570.06 327.59 1500 327.59C1431.56 327.59 1427.44 294.98 1363.64 250C1302.44 206.85 1296.68 209.07 1250 151.32" stroke="rgba(189, 113, 16, 0.31)" stroke-width="2"></path><path d="M1136.03 500C1202.27 423.94 1193.85 331.52 1250 331.52C1305.41 331.52 1306.06 414.83 1359.15 500C1431.06 615.35 1417.92 631.64 1500 732.56C1519.59 756.64 1530.96 742.44 1562.5 750C1655.96 772.39 1704.92 732.34 1750 792.45C1798.67 857.34 1806.7 952.93 1750 1000C1681.7 1056.7 1625 1000 1500 1000C1375 1000 1375 1000 1250 1000C1125 1000 1125 1000 1000 1000C956.66 1000 930.88 1031.68 913.33 1000C861.63 906.68 836.7 859.11 861.49 750C880.03 668.41 929.43 682.85 1000 618.59C1066.7 557.85 1077.27 567.48 1136.03 500" stroke="rgba(189, 113, 16, 0.31)" stroke-width="2"></path><path d="M0 873.56C40.38 873.56 135.8 963.5 135.8 1000C135.8 1026.72 35.16 1032.74 0 1000C-32.74 969.52 -27.52 873.56 0 873.56" stroke="rgba(189, 113, 16, 0.31)" stroke-width="2"></path><path d="M382.14 1000C382.14 946.5 444.11 831.63 500 831.63C553.34 831.63 600.61 944.36 600.61 1000C600.61 1028.54 550.31 1000 500 1000C441.07 1000 382.14 1030.68 382.14 1000" stroke="rgba(189, 113, 16, 0.31)" stroke-width="2"></path><path d="M250 75C234.75 75 228.57 29.42 228.57 0C228.57 -8.08 239.28 0 250 0C271.43 0 292.86 -12.44 292.86 0C292.86 25.06 266.89 75 250 75" stroke="rgba(189, 113, 16, 0.31)" stroke-width="2"></path><path d="M193.97 500C193.97 437.92 221.14 379.63 250 379.63C279.25 379.63 310.19 437.68 310.19 500C310.19 588.14 279.15 680.56 250 680.56C221.04 680.56 193.97 588.39 193.97 500" stroke="rgba(189, 113, 16, 0.31)" stroke-width="2"></path><path d="M1227.94 500C1227.94 480.84 1239.13 467.39 1250 467.39C1260.73 467.39 1271.13 481.05 1271.13 500C1271.13 622.36 1260.8 750 1250 750C1239.2 750 1227.94 622.14 1227.94 500" stroke="rgba(189, 113, 16, 0.31)" stroke-width="2"></path><path d="M945.95 750C946.33 715.95 965.65 698.72 1000 698.72C1117.67 698.72 1247.59 686.01 1250 750C1253.27 836.65 1132.38 878.98 1011.36 1000C1007.38 1003.98 1005.68 1000 1000 1000C998.34 1000 997.02 1001.61 996.67 1000C969.99 876.61 944.66 866.59 945.95 750" stroke="rgba(189, 113, 16, 0.31)" stroke-width="2"></path><path d="M0 945.4C17.44 945.4 58.64 984.24 58.64 1000C58.64 1011.54 15.18 1014.14 0 1000C-14.14 986.84 -11.88 945.4 0 945.4" stroke="rgba(189, 113, 16, 0.31)" stroke-width="2"></path><path d="M471.43 1000C471.43 987.03 486.45 959.18 500 959.18C512.93 959.18 524.39 986.51 524.39 1000C524.39 1006.92 512.19 1000 500 1000C485.72 1000 471.43 1007.44 471.43 1000" stroke="rgba(189, 113, 16, 0.31)" stroke-width="2"></path><path d="M1391.89 1000C1391.89 969.34 1432.69 911.59 1500 894.74C1611.74 866.78 1657.94 871.62 1750 910.38C1782.94 924.25 1782.99 988.18 1750 1000C1657.99 1032.99 1625 1000 1500 1000C1445.95 1000 1391.89 1021.97 1391.89 1000" stroke="rgba(189, 113, 16, 0.31)" stroke-width="2"></path></g><defs><mask id="SvgjsMask1033"><rect width="1680" height="1000" fill="#ffffff"></rect></mask></defs></svg>